<svg width="128" height="128" viewBox="0 0 128 128" xmlns="http://www.w3.org/2000/svg">
  <defs>
    <linearGradient id="iconGrad" x1="0%" y1="0%" x2="100%" y2="100%">
      <stop offset="0%" style="stop-color:#4A90E2;stop-opacity:1" />
      <stop offset="100%" style="stop-color:#357ABD;stop-opacity:1" />
    </linearGradient>
  </defs>

  <!-- Main circular background -->
  <circle cx="64" cy="64" r="60" fill="url(#iconGrad)" />

  <!-- Broom handle -->
  <rect x="52" y="30" width="10" height="55" fill="#FFD700" rx="3" />

  <!-- Broom bristles -->
  <path d="M 47 78 Q 44 90, 41 98 L 45 100 Q 47 92, 50 82 Z" fill="#FFA500" />
  <path d="M 52 81 Q 50 93, 48 101 L 52 103 Q 54 95, 56 85 Z" fill="#FF8C00" />
  <path d="M 57 81 Q 56 93, 55 101 L 59 103 Q 60 95, 61 85 Z" fill="#FFA500" />
  <path d="M 62 78 Q 63 90, 64 98 L 68 100 Q 67 92, 66 82 Z" fill="#FF8C00" />
  <path d="M 67 81 Q 68 93, 69 101 L 73 103 Q 72 95, 71 85 Z" fill="#FFA500" />

  <!-- Sparkle effects -->
  <g fill="white" opacity="0.95">
    <circle cx="80" cy="45" r="3" />
    <circle cx="90" cy="55" r="2.5" />
    <circle cx="85" cy="65" r="2" />
    <circle cx="95" cy="75" r="2" />
    <circle cx="75" cy="35" r="2" />
  </g>

  <!-- Star sparkles -->
  <g fill="white" opacity="0.9">
    <path d="M 0 0 l 2 6 l 6 1 l -5 4 l 2 6 l -5 -3 l -5 3 l 2 -6 l -5 -4 l 6 -1 Z" transform="scale(0.5) translate(150, 55)" />
    <path d="M 0 0 l 2 6 l 6 1 l -5 4 l 2 6 l -5 -3 l -5 3 l 2 -6 l -5 -4 l 6 -1 Z" transform="scale(0.45) translate(165, 115)" />
  </g>
</svg>
