<svg width="200" height="200" viewBox="0 0 200 200" xmlns="http://www.w3.org/2000/svg">
  <defs>
    <linearGradient id="grad1" x1="0%" y1="0%" x2="100%" y2="100%">
      <stop offset="0%" style="stop-color:#4A90E2;stop-opacity:1" />
      <stop offset="100%" style="stop-color:#357ABD;stop-opacity:1" />
    </linearGradient>
  </defs>

  <!-- Main circular background -->
  <circle cx="100" cy="100" r="90" fill="url(#grad1)" />

  <!-- Broom handle -->
  <rect x="75" y="50" width="8" height="80" fill="#FFD700" rx="2" />

  <!-- Broom bristles -->
  <path d="M 71 120 Q 68 135, 65 145 L 68 147 Q 70 137, 73 125 Z" fill="#FFA500" />
  <path d="M 75 125 Q 73 140, 71 150 L 74 152 Q 76 142, 78 130 Z" fill="#FF8C00" />
  <path d="M 79 125 Q 78 140, 77 150 L 80 152 Q 81 142, 82 130 Z" fill="#FFA500" />
  <path d="M 83 120 Q 84 135, 85 145 L 88 147 Q 87 137, 86 125 Z" fill="#FF8C00" />

  <!-- Sparkle effects -->
  <g fill="white" opacity="0.9">
    <circle cx="120" cy="70" r="3" />
    <circle cx="135" cy="85" r="2" />
    <circle cx="125" cy="95" r="2.5" />
    <circle cx="140" cy="110" r="2" />
  </g>

  <!-- Star sparkles -->
  <g fill="white" opacity="0.8">
    <path d="M 115 60 l 2 6 l 6 1 l -5 4 l 2 6 l -5 -3 l -5 3 l 2 -6 l -5 -4 l 6 -1 Z" transform="scale(0.4) translate(170, 60)" />
    <path d="M 130 100 l 2 6 l 6 1 l -5 4 l 2 6 l -5 -3 l -5 3 l 2 -6 l -5 -4 l 6 -1 Z" transform="scale(0.35) translate(200, 120)" />
  </g>

  <!-- Text badge -->
  <rect x="35" y="145" width="130" height="35" rx="17.5" fill="rgba(255,255,255,0.95)" />
  <text x="100" y="169" font-family="Arial, sans-serif" font-size="20" font-weight="bold" fill="#357ABD" text-anchor="middle">cleanup</text>
</svg>
